<?xml version="1.0" standalone="no"?>
<!DOCTYPE svg PUBLIC "-//W3C//DTD SVG 1.1//EN" "http://www.w3.org/Graphics/SVG/1.1/DTD/svg11.dtd">
<svg width="110mm" height="50mm" viewBox="-55 -25 110 50" xmlns="http://www.w3.org/2000/svg" version="1.1">
<title>OpenSCAD Model</title>
<path d="
M 49.098,24.8561 L 49.1604,24.8493 L 49.2223,24.8385 L 49.2833,24.8238 L 49.3433,24.8054 L 49.4021,24.7832
 L 49.4593,24.7573 L 49.5148,24.728 L 49.5683,24.6952 L 49.6197,24.6591 L 49.6687,24.6198 L 49.7152,24.5775
 L 49.7589,24.5325 L 49.7997,24.4847 L 49.8374,24.4345 L 49.8718,24.382 L 49.901,24.3309 L 49.9452,24.2388
 L 50.6981,22.499 L 50.7328,22.4114 L 51.999,18.8945 L 52.0281,18.8049 L 53.0709,15.2155 L 53.0943,15.1242
 L 53.9097,11.4764 L 53.9274,11.3838 L 54.5121,7.69194 L 54.5239,7.59846 L 54.8757,3.87718 L 54.8816,3.78314
 L 54.999,0.0471123 L 54.999,-0.0471123 L 54.8816,-3.78314 L 54.8757,-3.87718 L 54.5239,-7.59846 L 54.5121,-7.69194
 L 53.9274,-11.3838 L 53.9097,-11.4764 L 53.0943,-15.1242 L 53.0709,-15.2155 L 52.0281,-18.8049 L 51.999,-18.8945
 L 50.7328,-22.4114 L 50.6981,-22.499 L 49.9437,-24.2424 L 49.9102,-24.3135 L 49.88,-24.3685 L 49.8463,-24.4215
 L 49.8094,-24.4723 L 49.7694,-24.5207 L 49.7264,-24.5665 L 49.6807,-24.6094 L 49.6323,-24.6495 L 49.5815,-24.6864
 L 49.5285,-24.72 L 49.4734,-24.7503 L 49.4166,-24.777 L 49.3582,-24.8001 L 49.2985,-24.8195 L 49.2377,-24.8351
 L 49.176,-24.8469 L 49.1137,-24.8548 L 49.055,-24.8585 L 48.9528,-24.8577 L 47.9447,-24.81 L 47.8971,-24.807
 L 44.9348,-24.5724 L 44.8866,-24.5678 L 41.96,-24.2407 L 41.911,-24.2344 L 39.0318,-23.8162 L 38.9817,-23.808
 L 36.1615,-23.3004 L 36.11,-23.2902 L 33.36,-22.6952 L 33.3069,-22.6827 L 30.6382,-22.0028 L 30.5831,-21.9876
 L 28.0064,-21.2257 L 27.9491,-21.2075 L 25.4746,-20.3667 L 25.4148,-20.3449 L 23.0526,-19.4287 L 22.9899,-19.4028
 L 20.7495,-18.4152 L 20.6837,-18.3843 L 18.574,-17.3294 L 18.5048,-17.2925 L 16.5344,-16.175 L 16.4617,-16.131
 L 14.6384,-14.9557 L 14.5621,-14.9032 L 12.8932,-13.6753 L 12.8137,-13.6126 L 11.3058,-12.3377 L 11.2236,-12.2629
 L 9.88243,-10.9467 L 9.79884,-10.8577 L 9.37637,-10.3696 L 9.33379,-10.3234 L 9.28839,-10.28 L 9.24035,-10.2395
 L 9.18987,-10.2021 L 9.13714,-10.168 L 9.08237,-10.1372 L 9.02577,-10.1099 L 8.96758,-10.0863 L 8.90801,-10.0663
 L 8.84731,-10.0501 L 8.78571,-10.0378 L 8.72346,-10.0293 L 8.6608,-10.0248 L 8.59798,-10.0243 L 8.53525,-10.0276
 L 8.47285,-10.0349 L 8.41104,-10.0461 L 8.35005,-10.0612 L 8.29013,-10.0801 L 8.23151,-10.1027 L 8.17442,-10.1289
 L 8.1191,-10.1586 L 8.06575,-10.1918 L 8.00733,-10.2339 L 7.67874,-10.4887 L 7.60251,-10.5441 L 7.005,-10.9502
 L 6.92544,-11.0007 L 6.30361,-11.3684 L 6.22104,-11.4138 L 5.57734,-11.7418 L 5.49208,-11.7819 L 4.82906,-12.0688
 L 4.74145,-12.1035 L 4.06172,-12.3482 L 3.97211,-12.3774 L 3.27836,-12.5789 L 3.18709,-12.6023 L 2.48205,-12.7599
 L 2.38949,-12.7776 L 1.67595,-12.8906 L 1.58247,-12.9024 L 0.863234,-12.9704 L 0.769195,-12.9763 L 0.0471123,-12.999
 L -0.0471123,-12.999 L -0.769195,-12.9763 L -0.863234,-12.9704 L -1.58247,-12.9024 L -1.67595,-12.8906 L -2.38949,-12.7776
 L -2.48205,-12.7599 L -3.18709,-12.6023 L -3.27836,-12.5789 L -3.97211,-12.3774 L -4.06172,-12.3482 L -4.74145,-12.1035
 L -4.82906,-12.0688 L -5.49208,-11.7819 L -5.57734,-11.7418 L -6.22104,-11.4138 L -6.30361,-11.3684 L -6.92544,-11.0007
 L -7.005,-10.9502 L -7.60251,-10.5441 L -7.67874,-10.4887 L -8.00733,-10.2339 L -8.05816,-10.1969 L -8.1112,-10.1633
 L -8.16625,-10.133 L -8.22309,-10.1063 L -8.2815,-10.0831 L -8.34125,-10.0637 L -8.4021,-10.0481 L -8.4638,-10.0363
 L -8.52613,-10.0284 L -8.58883,-10.0245 L -8.65165,-10.0245 L -8.71435,-10.0284 L -8.77667,-10.0363 L -8.83838,-10.0481
 L -8.89923,-10.0637 L -8.95898,-10.0831 L -9.01739,-10.1063 L -9.07423,-10.133 L -9.12928,-10.1633 L -9.18232,-10.1969
 L -9.23315,-10.2339 L -9.28155,-10.2739 L -9.32735,-10.3169 L -9.37637,-10.3696 L -9.79884,-10.8577 L -9.88243,-10.9467
 L -11.2236,-12.2629 L -11.3058,-12.3377 L -12.8137,-13.6126 L -12.8932,-13.6753 L -14.5621,-14.9032 L -14.6384,-14.9557
 L -16.4617,-16.131 L -16.5344,-16.175 L -18.5048,-17.2925 L -18.574,-17.3294 L -20.6837,-18.3843 L -20.7495,-18.4152
 L -22.9899,-19.4028 L -23.0526,-19.4287 L -25.4148,-20.3449 L -25.4746,-20.3667 L -27.9491,-21.2075 L -28.0064,-21.2257
 L -30.5831,-21.9876 L -30.6382,-22.0028 L -33.3069,-22.6827 L -33.36,-22.6952 L -36.11,-23.2902 L -36.1615,-23.3004
 L -38.9817,-23.808 L -39.0318,-23.8162 L -41.911,-24.2344 L -41.96,-24.2407 L -44.8866,-24.5678 L -44.9348,-24.5724
 L -47.8971,-24.807 L -47.9447,-24.81 L -48.9568,-24.8578 L -49.0353,-24.8591 L -49.098,-24.8561 L -49.1604,-24.8493
 L -49.2223,-24.8385 L -49.2833,-24.8238 L -49.3433,-24.8054 L -49.4021,-24.7832 L -49.4593,-24.7573 L -49.5148,-24.728
 L -49.5683,-24.6952 L -49.6197,-24.6591 L -49.6687,-24.6198 L -49.7152,-24.5775 L -49.7589,-24.5325 L -49.7997,-24.4847
 L -49.8374,-24.4345 L -49.8718,-24.382 L -49.901,-24.3309 L -49.9452,-24.2388 L -50.6981,-22.499 L -50.7328,-22.4114
 L -51.999,-18.8945 L -52.0281,-18.8049 L -53.0709,-15.2155 L -53.0943,-15.1242 L -53.9097,-11.4764 L -53.9274,-11.3838
 L -54.5121,-7.69194 L -54.5239,-7.59846 L -54.8757,-3.87718 L -54.8816,-3.78314 L -54.999,-0.0471123 L -54.999,0.0471123
 L -54.8816,3.78314 L -54.8757,3.87718 L -54.5239,7.59846 L -54.5121,7.69194 L -53.9274,11.3838 L -53.9097,11.4764
 L -53.0943,15.1242 L -53.0709,15.2155 L -52.0281,18.8049 L -51.999,18.8945 L -50.7328,22.4114 L -50.6981,22.499
 L -49.9437,24.2424 L -49.9102,24.3135 L -49.88,24.3685 L -49.8463,24.4215 L -49.8094,24.4723 L -49.7694,24.5207
 L -49.7264,24.5665 L -49.6807,24.6094 L -49.6323,24.6495 L -49.5815,24.6864 L -49.5285,24.72 L -49.4734,24.7503
 L -49.4166,24.777 L -49.3582,24.8001 L -49.2985,24.8195 L -49.2377,24.8351 L -49.176,24.8469 L -49.1137,24.8548
 L -49.055,24.8585 L -48.9528,24.8577 L -47.9447,24.81 L -47.8971,24.807 L -44.9348,24.5724 L -44.8866,24.5678
 L -41.96,24.2407 L -41.911,24.2344 L -39.0318,23.8162 L -38.9817,23.808 L -36.1615,23.3004 L -36.11,23.2902
 L -33.36,22.6952 L -33.3069,22.6827 L -30.6382,22.0028 L -30.5831,21.9876 L -28.0064,21.2257 L -27.9491,21.2075
 L -25.4746,20.3667 L -25.4148,20.3449 L -23.0526,19.4287 L -22.9899,19.4028 L -20.7495,18.4152 L -20.6837,18.3843
 L -18.574,17.3294 L -18.5048,17.2925 L -16.5344,16.175 L -16.4617,16.131 L -14.6384,14.9557 L -14.5621,14.9032
 L -12.8932,13.6753 L -12.8137,13.6126 L -11.3058,12.3377 L -11.2236,12.2629 L -9.88243,10.9467 L -9.79884,10.8577
 L -9.37637,10.3696 L -9.33379,10.3234 L -9.28839,10.28 L -9.24035,10.2395 L -9.18987,10.2021 L -9.13714,10.168
 L -9.08237,10.1372 L -9.02577,10.1099 L -8.96758,10.0863 L -8.90801,10.0663 L -8.84731,10.0501 L -8.78571,10.0378
 L -8.72346,10.0293 L -8.6608,10.0248 L -8.59798,10.0243 L -8.53525,10.0276 L -8.47285,10.0349 L -8.41104,10.0461
 L -8.35005,10.0612 L -8.29013,10.0801 L -8.23151,10.1027 L -8.17442,10.1289 L -8.1191,10.1586 L -8.06575,10.1918
 L -8.00733,10.2339 L -7.67874,10.4887 L -7.60251,10.5441 L -7.005,10.9502 L -6.92544,11.0007 L -6.30361,11.3684
 L -6.22104,11.4138 L -5.57734,11.7418 L -5.49208,11.7819 L -4.82906,12.0688 L -4.74145,12.1035 L -4.06172,12.3482
 L -3.97211,12.3774 L -3.27836,12.5789 L -3.18709,12.6023 L -2.48205,12.7599 L -2.38949,12.7776 L -1.67595,12.8906
 L -1.58247,12.9024 L -0.863234,12.9704 L -0.769195,12.9763 L -0.0471123,12.999 L 0.0471123,12.999 L 0.769195,12.9763
 L 0.863234,12.9704 L 1.58247,12.9024 L 1.67595,12.8906 L 2.38949,12.7776 L 2.48205,12.7599 L 3.18709,12.6023
 L 3.27836,12.5789 L 3.97211,12.3774 L 4.06172,12.3482 L 4.74145,12.1035 L 4.82906,12.0688 L 5.49208,11.7819
 L 5.57734,11.7418 L 6.22104,11.4138 L 6.30361,11.3684 L 6.92544,11.0007 L 7.005,10.9502 L 7.60251,10.5441
 L 7.67874,10.4887 L 8.00733,10.2339 L 8.05816,10.1969 L 8.1112,10.1633 L 8.16625,10.133 L 8.22309,10.1063
 L 8.2815,10.0831 L 8.34125,10.0637 L 8.4021,10.0481 L 8.4638,10.0363 L 8.52613,10.0284 L 8.58883,10.0245
 L 8.65165,10.0245 L 8.71435,10.0284 L 8.77667,10.0363 L 8.83838,10.0481 L 8.89923,10.0637 L 8.95898,10.0831
 L 9.01739,10.1063 L 9.07423,10.133 L 9.12928,10.1633 L 9.18232,10.1969 L 9.23315,10.2339 L 9.28155,10.2739
 L 9.32735,10.3169 L 9.37637,10.3696 L 9.79884,10.8577 L 9.88243,10.9467 L 11.2236,12.2629 L 11.3058,12.3377
 L 12.8137,13.6126 L 12.8932,13.6753 L 14.5621,14.9032 L 14.6384,14.9557 L 16.4617,16.131 L 16.5344,16.175
 L 18.5048,17.2925 L 18.574,17.3294 L 20.6837,18.3843 L 20.7495,18.4152 L 22.9899,19.4028 L 23.0526,19.4287
 L 25.4148,20.3449 L 25.4746,20.3667 L 27.9491,21.2075 L 28.0064,21.2257 L 30.5831,21.9876 L 30.6382,22.0028
 L 33.3069,22.6827 L 33.36,22.6952 L 36.11,23.2902 L 36.1615,23.3004 L 38.9817,23.808 L 39.0318,23.8162
 L 41.911,24.2344 L 41.96,24.2407 L 44.8866,24.5678 L 44.9348,24.5724 L 47.8971,24.807 L 47.9447,24.81
 L 48.9568,24.8578 L 49.0353,24.8591 z
" stroke="black" fill="lightgray" stroke-width="0.5"/>
</svg>
