<?xml version="1.0" standalone="no"?>
<!DOCTYPE svg PUBLIC "-//W3C//DTD SVG 1.1//EN" "http://www.w3.org/Graphics/SVG/1.1/DTD/svg11.dtd">
<svg width="94mm" height="36mm" viewBox="-47 -18 94 36" xmlns="http://www.w3.org/2000/svg" version="1.1">
<title>OpenSCAD Model</title>
<path d="
M 44.4906,-14.597 L 43.4646,-17.4161 L 40.0817,-16.1848 L 41.1078,-13.3657 z
M -40.0817,-16.1848 L -43.4646,-17.4161 L -44.4906,-14.597 L -41.1078,-13.3657 z
M 33.2143,-10.4928 L 32.1883,-13.3118 L 28.8054,-12.0806 L 29.8314,-9.26149 z
M -28.8054,-12.0806 L -32.1883,-13.3118 L -33.2143,-10.4928 L -29.8314,-9.26149 z
M 21.938,-6.38852 L 20.912,-9.2076 L 17.5291,-7.97633 L 18.5551,-5.15725 z
M -17.5291,-7.97633 L -20.912,-9.2076 L -21.938,-6.38852 L -18.5551,-5.15725 z
M 46.8,-1.5 L 43.2,-1.5 L 43.2,1.5 L 46.8,1.5 z
M 34.8,-1.5 L 31.2,-1.5 L 31.2,1.5 L 34.8,1.5 z
M 1.8,-1.5 L -1.8,-1.5 L -1.8,1.5 L 1.8,1.5 z
M -43.2,-1.5 L -46.8,-1.5 L -46.8,1.5 L -43.2,1.5 z
M -31.2,-1.5 L -34.8,-1.5 L -34.8,1.5 L -31.2,1.5 z
M 21.938,6.38852 L 18.5551,5.15725 L 17.5291,7.97633 L 20.912,9.2076 z
M -17.5291,7.97633 L -18.5551,5.15725 L -21.938,6.38852 L -20.912,9.2076 z
M 33.2143,10.4928 L 29.8314,9.26149 L 28.8054,12.0806 L 32.1883,13.3118 z
M -28.8054,12.0806 L -29.8314,9.26149 L -33.2143,10.4928 L -32.1883,13.3118 z
M 44.4906,14.597 L 41.1078,13.3657 L 40.0817,16.1848 L 43.4646,17.4161 z
M -40.0817,16.1848 L -41.1078,13.3657 L -44.4906,14.597 L -43.4646,17.4161 z
" stroke="black" fill="lightgray" stroke-width="0.5"/>
</svg>
